<svg xmlns="http://www.w3.org/2000/svg" viewBox="0 0 2409.1 1612.5">
	<path fill="#B0FFFF" d="M1898.5,1350.8c-0.4,25.7-21.2,46.5-47,46.8l-1256.3,13.5c-26.2,0.3-47.7-20.8-48-47c0-0.4,0-0.8,0-1.2
			c0.4-25.7,21.2-46.5,47-46.8l1256.3-13.5c26.2-0.3,47.7,20.8,48,47C1898.5,1350,1898.5,1350.4,1898.5,1350.8z"/>
	<circle fill="#314FFF" cx="558.7" cy="1377.8" r="233.9"/>
	<path fill="#3434E2" d="M371.6,1237.4c36.7-22.8,80.1-35.6,126.4-35c129.2,1.8,232.4,108,230.6,237.2c-0.7,51.5-18,98.9-46.8,137.1
				c65.5-40.7,109.6-112.8,110.7-195.6c1.8-129.2-101.4-235.4-230.6-237.2C484.3,1142.8,414.9,1179.7,371.6,1237.4z"/>
	<path opacity="0.27" fill="#FFFFFF" d="M472.5,1537.9c22,12.4,47.1,21.4,72.1,18.4c25.1-3.1,49.5-21,53.7-45.9c3.8-22.6-9.4-45.2-27.2-59.6
				c-17.8-14.4-39.8-22.4-60.8-31.4c-21.1-9-42.3-19.9-56.3-38.1c-7.4-9.7-12.7-21.4-22.3-28.9c-11.5-8.9-28.4-10.2-41-3
				c-33.5,19-13.7,74.4-1.3,101.1C406.6,1487.4,437.1,1517.9,472.5,1537.9z"/>
	<ellipse transform="matrix(0.7071 -0.7071 0.7071 0.7071 -412.3804 1704.1042)" fill="#3BE3FF" cx="1850.8" cy="1349.8" rx="233.9" ry="233.9"/>
	<path fill="#36D0FF" d="M1663.9,1209.7c36.7-22.8,80.1-35.6,126.4-35c129.2,1.8,232.4,108,230.6,237.2c-0.7,51.5-18,98.9-46.8,137.1
				c65.5-40.7,109.6-112.8,110.7-195.6c1.8-129.2-101.4-235.4-230.6-237.2C1776.6,1115.1,1707.2,1152.1,1663.9,1209.7z"/>
	<path fill="#FFFFFF" opacity="0.46" d="M1764.8,1510.2c22,12.4,47.1,21.4,72.1,18.4c25.1-3.1,49.5-21,53.7-45.9c3.8-22.6-9.4-45.2-27.2-59.6
				c-17.8-14.4-39.8-22.4-60.8-31.4c-21.1-9-42.3-19.9-56.3-38.1c-7.4-9.7-12.7-21.4-22.3-28.9c-11.5-8.9-28.4-10.2-41-3
				c-33.5,19-13.7,74.4-1.3,101.1C1698.9,1459.7,1729.4,1490.3,1764.8,1510.2z"/>
	<circle fill="#B25AFF" cx="1205" cy="1372.1" r="233.9"/>
	<path fill="#9145DB" d="M1017.9,1231.7c36.7-22.8,80.1-35.6,126.4-35c129.2,1.8,232.4,108,230.6,237.2c-0.7,51.5-18,98.9-46.8,137.1
				c65.5-40.7,109.6-112.8,110.7-195.6c1.8-129.2-101.4-235.4-230.6-237.2C1130.6,1137.1,1061.2,1174.1,1017.9,1231.7z"/>
	<path fill="#FFFFFF" opacity="0.27" d="M1118.8,1532.2c22,12.4,47.1,21.4,72.1,18.4c25-3.1,49.5-21,53.7-45.9c3.8-22.6-9.4-45.2-27.2-59.6
				c-17.8-14.4-39.8-22.4-60.8-31.4c-21.1-9-42.3-19.9-56.3-38.1c-7.4-9.7-12.7-21.4-22.3-28.9c-11.5-8.9-28.4-10.2-41-3
				c-33.5,19-13.7,74.4-1.3,101.1C1052.9,1481.7,1083.4,1512.3,1118.8,1532.2z"/>
	<path fill="#B0FFFF" d="M1899.7,254.7c-0.4,25.7-21.2,46.5-47,46.8L596.5,315c-26.2,0.3-47.7-20.8-48-47c0-0.4,0-0.8,0-1.2
			c0.4-25.7,21.2-46.5,47-46.8l1256.3-13.5c26.2-0.3,47.7,20.8,48,47C1899.7,253.9,1899.7,254.3,1899.7,254.7z"/>
	<circle fill="#3BE3FF" cx="596" cy="267.5" r="233.9"/>
	<path fill="#36D0FF" d="M408.9,127.1c36.7-22.8,80.1-35.6,126.4-35c129.2,1.8,232.4,108,230.6,237.2c-0.7,51.5-18,98.9-46.8,137.1
				c65.5-40.7,109.6-112.8,110.7-195.6c1.8-129.2-101.4-235.4-230.6-237.2C521.6,32.5,452.2,69.4,408.9,127.1z"/>
	<path fill="#FFFFFF" opacity="0.46" d="M509.8,427.6c22,12.4,47.1,21.4,72.1,18.4c25.1-3.1,49.5-21,53.7-45.9c3.8-22.6-9.4-45.2-27.2-59.6
				C590.6,326,568.6,318,547.6,309s-42.3-19.9-56.3-38.1c-7.4-9.7-12.7-21.4-22.3-28.9c-11.5-8.9-28.4-10.2-41-3
				c-33.5,19-13.7,74.4-1.3,101.1C443.9,377.1,474.4,407.7,509.8,427.6z"/>
	<path fill="#B0FFFF" d="M897.5,804.2c-0.4,26.2-21.9,47.2-48.2,46.8l-610.3-8.5c-26.2-0.4-47.2-21.9-46.8-48.2
			c0.4-26.2,21.9-47.2,48.2-46.8l610.3,8.5C876.9,756.5,897.9,778,897.5,804.2z"/>
	<circle fill="#3BE3FF" cx="239.7" cy="795" r="233.9"/>
	<path fill="#36D0FF" d="M52.6,654.7c36.7-22.8,80.1-35.6,126.4-35c129.2,1.8,232.4,108,230.6,237.2c-0.7,51.5-18,98.9-46.8,137.1
				c65.5-40.7,109.6-112.8,110.7-195.6C475.4,669.1,372.2,563,243,561.2C165.3,560.1,96,597,52.6,654.7z"/>
	<path fill="#FFFFFF" opacity="0.46" d="M153.6,955.1c22,12.4,47.1,21.4,72.1,18.4c25.1-3.1,49.5-21,53.7-45.9c3.9-22.6-9.4-45.2-27.2-59.6
				c-17.8-14.4-39.8-22.4-60.8-31.4c-21.1-9-42.3-19.9-56.3-38.1c-7.4-9.7-12.7-21.4-22.3-28.9c-11.5-8.9-28.4-10.2-41-3
				c-33.5,19-13.7,74.4-1.3,101.1C87.7,904.7,118.2,935.2,153.6,955.1z"/>
	<circle fill="#B25AFF" cx="850" cy="803.6" r="233.9"/>
	<path fill="#9145DB" d="M662.9,663.2c36.7-22.8,80.1-35.6,126.4-35c129.2,1.8,232.4,108,230.6,237.2c-0.7,51.5-18,98.9-46.8,137.1
				c65.5-40.7,109.6-112.8,110.7-195.6c1.8-129.2-101.4-235.4-230.6-237.2C775.6,568.6,706.3,605.5,662.9,663.2z"/>
	<path fill="#FFFFFF" opacity="0.27" d="M763.9,963.7c22,12.4,47.1,21.4,72.1,18.4c25-3.1,49.5-21,53.7-45.9c3.8-22.6-9.4-45.2-27.2-59.6
				c-17.8-14.4-39.8-22.4-60.8-31.4c-21.1-9-42.3-19.9-56.3-38.1c-7.4-9.7-12.7-21.4-22.3-28.9c-11.5-8.9-28.4-10.2-41-3
				c-33.5,19-13.7,74.4-1.3,101.1C697.9,913.2,728.5,943.7,763.9,963.7z"/>
	<path fill="#B0FFFF" d="M2219.4,822.7c-0.4,26.2-21.9,47.2-48.2,46.8L1561,861c-26.2-0.4-47.2-21.9-46.8-48.2
			c0.4-26.2,21.9-47.2,48.2-46.8l610.3,8.5C2198.8,775,2219.8,796.5,2219.4,822.7z"/>
	<circle fill="#3BE3FF" cx="1561.7" cy="813.5" r="233.9"/>
	<path fill="#36D0FF" d="M1374.5,673.2c36.7-22.8,80.1-35.6,126.4-35c129.2,1.8,232.4,108,230.6,237.2c-0.7,51.5-18,98.9-46.8,137.1
				c65.5-40.7,109.6-112.8,110.7-195.6c1.8-129.2-101.4-235.4-230.6-237.2C1487.2,578.6,1417.9,615.5,1374.5,673.2z"/>
	<path fill="#FFFFFF" opacity="0.46" d="M1475.5,973.6c22,12.4,47.1,21.4,72.1,18.4c25.1-3.1,49.5-21,53.7-45.9c3.8-22.6-9.4-45.2-27.2-59.6
				c-17.8-14.4-39.8-22.4-60.8-31.4c-21.1-9-42.3-19.9-56.3-38.1c-7.4-9.7-12.7-21.4-22.3-28.9c-11.5-8.9-28.4-10.2-41-3
				c-33.5,19-13.7,74.4-1.3,101.1C1409.6,923.2,1440.1,953.7,1475.5,973.6z"/>
	<circle fill="#B25AFF" cx="2171.9" cy="822.1" r="233.9"/>
	<path fill="#9145DB" d="M1984.8,681.7c36.7-22.8,80.1-35.6,126.4-35c129.2,1.8,232.4,108,230.6,237.2c-0.7,51.5-18,98.9-46.8,137.1
				c65.5-40.7,109.6-112.8,110.7-195.6c1.8-129.2-101.4-235.4-230.6-237.2C2097.5,587.1,2028.2,624,1984.8,681.7z"/>
	<path fill="#FFFFFF" opacity="0.27" d="M2085.8,982.2c22,12.4,47.1,21.4,72.1,18.4c25-3.1,49.5-21,53.7-45.9c3.8-22.6-9.4-45.2-27.2-59.6
				c-17.8-14.4-39.8-22.4-60.8-31.4c-21.1-9-42.3-19.9-56.3-38.1c-7.4-9.7-12.7-21.4-22.3-28.9c-11.5-8.9-28.4-10.2-41-3
				c-33.5,19-13.7,74.4-1.3,101.1C2019.9,931.7,2050.4,962.2,2085.8,982.2z"/>
	<circle fill="#FF8B17" cx="1201.7" cy="260.5" r="233.9"/>
	<path fill="#FF7610" d="M1014.6,120.1c36.7-22.8,80.1-35.6,126.4-35c129.2,1.8,232.4,108,230.6,237.2c-0.7,51.5-18,98.9-46.8,137.1
				c65.5-40.7,109.6-112.8,110.7-195.6c1.8-129.2-101.4-235.4-230.6-237.2C1127.3,25.5,1057.9,62.4,1014.6,120.1z"/>
	<path fill="#FFFFFF" opacity="0.27" d="M1115.5,420.5c22,12.4,47.1,21.4,72.1,18.4c25-3.1,49.5-21,53.7-45.9c3.8-22.6-9.4-45.2-27.2-59.6
				c-17.8-14.4-39.8-22.4-60.8-31.4c-21.1-9-42.3-19.9-56.3-38.1c-7.4-9.7-12.7-21.4-22.3-28.9c-11.5-8.9-28.4-10.2-41-3
				c-33.5,19-13.7,74.4-1.3,101.1C1049.6,370.1,1080.1,400.6,1115.5,420.5z"/>
	<circle fill="#314FFF" cx="1889" cy="239" r="233.9"/>
	<path fill="#3434E2" d="M1701.9,98.7c36.7-22.8,80.1-35.6,126.4-35c129.2,1.8,232.4,108,230.6,237.2c-0.7,51.5-18,98.9-46.8,137.1
				c65.5-40.7,109.6-112.8,110.7-195.6c1.8-129.2-101.4-235.4-230.6-237.2C1814.6,4.1,1745.2,41,1701.9,98.7z"/>
	<path fill="#FFFFFF" opacity="0.27" d="M1802.8,399.1c22,12.4,47.1,21.4,72.1,18.4c25.1-3.1,49.5-21,53.7-45.9c3.8-22.6-9.4-45.2-27.2-59.6
				c-17.8-14.4-39.8-22.4-60.8-31.4c-21.1-9-42.3-19.9-56.3-38.1c-7.4-9.7-12.7-21.4-22.3-28.9c-11.5-8.9-28.4-10.2-41-3
				c-33.5,19-13.7,74.4-1.3,101.1C1736.9,348.6,1767.4,379.2,1802.8,399.1z"/>
</svg>
